<svg xmlns="http://www.w3.org/2000/svg" width="40" height="40.001" viewBox="0 0 40 40.001"><defs><style>.a,.d{fill:none;}.a{stroke:#000;stroke-width:0.3px;}.b{fill-rule:evenodd;}.c{stroke:none;}</style></defs><g class="a"><rect class="c" width="40" height="40.001" rx="20"/><rect class="d" x="0.15" y="0.15" width="39.7" height="39.701" rx="19.85"/></g><path class="b" d="M638,284.351a5.94,5.94,0,1,0-5.94,5.941,5.9,5.9,0,0,0,5.94-5.941Zm-.169-6.79a.934.934,0,1,0,.933.934.942.942,0,0,0-.933-.934ZM627.143,276.2h9.674a3.223,3.223,0,0,1,3.225,3.225V289.1a3.223,3.223,0,0,1-3.225,3.225h-9.674a3.223,3.223,0,0,1-3.225-3.225v-9.675a3.279,3.279,0,0,1,3.225-3.225Zm9.759-1.1h-9.674a4.346,4.346,0,0,0-4.328,4.328V289.1a4.347,4.347,0,0,0,4.328,4.328H636.9a4.346,4.346,0,0,0,4.328-4.328v-9.675A4.346,4.346,0,0,0,636.9,275.1Zm-9.589,9.251a4.667,4.667,0,1,1,4.667,4.668,4.709,4.709,0,0,1-4.667-4.668Z" transform="translate(-611.9 -264.1)"/></svg>