<svg xmlns="http://www.w3.org/2000/svg" width="164.455" height="39" viewBox="0 0 164.455 39"><defs><style>.a{fill:#fff;}</style></defs><g transform="translate(822.342 -668.587)"><path class="a" d="M-789.123,711.015c0,5.358-.018,10.38.012,15.4a3.988,3.988,0,0,0,1.783,3.526h-6.146c2.114-1.783,1.567-4.152,1.59-6.371.044-4.238.016-8.477.011-12.715,0-1.82.19-3.7-1.462-5.2,1.477,0,2.953.007,4.43,0,.628,0,.8.528,1.09.9q6.678,8.537,13.35,17.08a7.47,7.47,0,0,0,.669.629v-7.783c0-2.036-.005-4.072,0-6.108.005-1.7-.116-3.342-1.838-4.638h6.363c-2.047,1.473-1.794,3.444-1.8,5.332q-.014,9.475,0,18.949c0,1.278-.071,1.313-1.217.741a11.653,11.653,0,0,1-3.925-3.391q-6.073-7.746-12.172-15.471C-788.556,711.675-788.743,711.466-789.123,711.015Z" transform="translate(-18.321 -23.525)"/><path class="a" d="M-620.006,705.9a4.347,4.347,0,0,0-1.354,3.558q-.019,8.539,0,17.079a4.564,4.564,0,0,0,1.388,3.648c-1.652,0-3.032-.006-4.411,0-.432,0-.583-.208-.575-.61.011-.492,0-.984,0-1.439-.315-.2-.438.02-.58.144-3.2,2.813-6.869,3.185-10.714,1.768a6.658,6.658,0,0,1-4.553-6.521c-.1-4.32-.024-8.643-.07-12.964-.017-1.6.076-3.264-1.336-4.67h6.367c-1.3,1.2-1.292,2.654-1.294,4.1-.006,3.989.016,7.979-.014,11.968-.02,2.629.964,4.666,3.483,5.626a6.577,6.577,0,0,0,7.178-1.35,4.149,4.149,0,0,0,1.381-3.217c-.009-4.529,0-9.059-.015-13.588a4.306,4.306,0,0,0-1.347-3.536Z" transform="translate(-114.325 -23.68)"/><path class="a" d="M-429.98,705.643c3.535.08,7.013-.426,10.48.054s5.868,3.128,5.6,6.325c-.241,2.836-2.122,4.48-4.581,5.554-1.294.566-1.336.561-.448,1.689,2.464,3.127,4.795,6.376,7.885,8.95.659.549,1.368,1.039,2.152,1.631-3.009.636-5.582.372-7.685-2.041a74.361,74.361,0,0,1-7.58-10.51,13.638,13.638,0,0,0,3.745-1.309,4.534,4.534,0,0,0,2.235-5.3c-.519-1.732-2.3-2.837-4.517-2.8-2.38.042-2.383.042-2.382,2.378,0,5.149-.016,10.3.024,15.449.011,1.432-.064,2.94,1.388,4.125h-6.354c1.508-1.51,1.2-3.412,1.206-5.224.023-5.191-.014-10.382-.019-15.573A4.639,4.639,0,0,0-429.98,705.643Z" transform="translate(-248.992 -23.419)"/><path class="a" d="M-520.922,729.8c-3.449.869-6.109.048-8.267-2.628a85.779,85.779,0,0,1-6.995-9.891,11.669,11.669,0,0,0,4.236-1.636,4.332,4.332,0,0,0,1.822-4.463,3.824,3.824,0,0,0-2.981-3.158,8.641,8.641,0,0,0-3.343-.031c-.516.056-.671.365-.664.86.08,6.1-.152,12.212.127,18.316a3.227,3.227,0,0,0,1.329,2.645h-6.478a4.179,4.179,0,0,0,1.267-3.461q-.007-8.725-.014-17.449a3.829,3.829,0,0,0-1.172-3.154c.351-.365.75-.227,1.089-.213,3.152.127,6.316-.339,9.457.148,3.584.556,5.889,3.2,5.559,6.473-.258,2.57-1.969,4.114-4.143,5.219-.509.259-1.063.432-1.757.709C-528.521,722.3-525.566,726.729-520.922,729.8Z" transform="translate(-177.836 -23.401)"/><path class="a" d="M-466.29,709.531c-2.567-1.761-5.186-1.356-7.786-1.129-.441.039-.544.282-.544.661,0,1.869.011,3.739,0,5.608,0,.538.23.731.751.721,1.536-.029,3.077.026,4.608-.076.6-.04.845.011.829.644-.023.906-.006,1.812-.006,2.83-1.812-1.031-3.662-.7-5.464-.776-.555-.022-.719.251-.718.756.008,2.451.015,4.9-.009,7.353-.006.594.235.766.8.828,4.078.447,7.3.508,10.883-1.687-.557,1.591-1.036,2.958-1.514,4.325-.126.36-.427.336-.719.336h-14.768c1.522-1.01,1.539-2.328,1.558-3.59.088-5.939.19-11.879-.05-17.817a3.565,3.565,0,0,0-1.448-2.973c.852,0,1.367,0,1.882,0,3.656-.015,7.311-.019,10.966-.059.509-.006.777.055.763.637C-466.309,707.191-466.29,708.262-466.29,709.531Z" transform="translate(-217.301 -23.418)"/><path class="a" d="M-815.69,730.123h-6.474a4.275,4.275,0,0,0,1.28-3.3c.1-5.977.167-11.955-.036-17.931a3.444,3.444,0,0,0-1.422-3.017h6.58a4.137,4.137,0,0,0-1.29,3.33q0,8.72-.006,17.44A3.979,3.979,0,0,0-815.69,730.123Z" transform="translate(0 -23.665)"/><path class="a" d="M-564.186,730.178h-6.553a3.828,3.828,0,0,0,1.3-2.961c.126-6.147.187-12.293-.029-18.44a3.462,3.462,0,0,0-1.3-2.825h6.462c-1.315,1.141-1.3,2.6-1.3,4.044,0,5.36-.018,10.721,0,16.081C-565.6,727.48-565.7,728.944-564.186,730.178Z" transform="translate(-159.663 -23.715)"/><path class="a" d="M-700.375,726.516l1.176-1.269a12.536,12.536,0,0,0-.444-17.619c-3.514-3.352-7.824-4.124-12.495-3.315a12.889,12.889,0,0,0-10.815,13.221c.273,6.159,5.4,11.32,11.791,11.982a16.543,16.543,0,0,0,7.427-1c-.11.6-.742.835-.744,1.5,2.567-.512,5.1-.236,7.625-.3.582-.016,1.226.073,1.636-.416.823-.984,1.579-2.023,2.536-3.262C-695.364,726.748-697.748,726.408-700.375,726.516Zm-11.9-.047c-3.7-1.232-5.387-4.24-6.235-7.8a10.432,10.432,0,0,1,.559-6.478c1.487-3.625,4.868-5.646,9.074-5.473A9.2,9.2,0,0,1-700.6,713.4a10.02,10.02,0,0,1,.557,3.533C-700.018,724.206-705.791,728.625-712.271,726.469Z" transform="translate(-63.07 -22.487)"/><path class="a" d="M-780.513,677.5h-2.144c.59-1.264.266-2.577.35-3.856.02-.307-.188-.292-.393-.292q-1.992,0-3.984,0c-.213,0-.393,0-.385.3.027.995.027,1.99.061,2.985a1.116,1.116,0,0,0,.419.838h-2.133c.5-1.108.46-7.687-.064-8.614h2.142c-.679,1.018-.348,2.146-.416,3.226-.017.268.211.234.381.235q1.992,0,3.984,0c.168,0,.388.038.384-.233a11.431,11.431,0,0,0-.133-2.711,2.2,2.2,0,0,0-.293-.494h2.216a1.7,1.7,0,0,0-.456,1.428c0,1.882-.006,3.763,0,5.645A1.84,1.84,0,0,0-780.513,677.5Z" transform="translate(-21.296 -0.171)"/><path class="a" d="M-603.158,670.689v5.566a1.667,1.667,0,0,0,.543,1.162,11.063,11.063,0,0,1-2.064.005,2.553,2.553,0,0,0,.538-1.966q0-2.424,0-4.848a2.053,2.053,0,0,0-.659-1.832c.627,0,1.106.022,1.582-.008.315-.02.406.2.553.385,1.6,2.056,3.209,4.108,4.949,6.334,0-.712,0-1.227,0-1.742,0-1.062-.009-2.125,0-3.187a2.111,2.111,0,0,0-.6-1.749h2.139c-.709.682-.58,1.531-.581,2.351,0,2.036,0,4.073,0,6.109,0,.627-.07.664-.605.349a4.416,4.416,0,0,1-1.215-1.114C-600.068,674.611-601.558,672.723-603.158,670.689Z" transform="translate(-138.065 -0.115)"/><path class="a" d="M-561.238,675.76c-.2.577-.349.985-.474,1.4a.391.391,0,0,1-.444.3c-1.635,0-3.27,0-4.737,0a46.14,46.14,0,0,0-.052-8.691c1.3,0,2.754,0,4.205,0,.234,0,.316.086.311.308-.007.331,0,.662,0,1.079a4.024,4.024,0,0,0-2.464-.4c-.363.025-.568.117-.53.549a10.449,10.449,0,0,1,0,1.459c-.018.361.079.544.474.5a6.279,6.279,0,0,1,.664,0c1.13,0,1.13,0,1.073,1.185a4.477,4.477,0,0,0-.459-.156c-1.494-.338-1.745-.141-1.745,1.357q0,.4,0,.8c0,.987,0,.986,1.019,1.03A4.845,4.845,0,0,0-561.238,675.76Z" transform="translate(-162.091 -0.113)"/><path class="a" d="M-818.268,668.738a32.849,32.849,0,0,1,3.792.063,2.37,2.37,0,0,1,2.249,2.22,2.647,2.647,0,0,1-2.293,2.462,3.158,3.158,0,0,1-1.428-.072,11.831,11.831,0,0,0,1.16-.446,1.855,1.855,0,0,0,.946-2.352,2.159,2.159,0,0,0-2.423-.9c-.242.081-.282.224-.281.444.008,1.97,0,3.94.014,5.911a1.8,1.8,0,0,0,.558,1.315h-2.239C-817.7,676.343-817.736,669.709-818.268,668.738Z" transform="translate(-2.586 -0.079)"/><path class="a" d="M-651.581,673.41a3.985,3.985,0,0,0,1.377-.543,1.823,1.823,0,0,0,.623-2.29,2.186,2.186,0,0,0-2.415-.783c-.219.088-.233.228-.232.412.005,1.992,0,3.984.017,5.976a1.659,1.659,0,0,0,.561,1.259h-2.308a1.984,1.984,0,0,0,.4-1.454q0-2.855,0-5.711a1.639,1.639,0,0,0-.516-1.463h3.638a.515.515,0,0,1,.066.007c1.505.182,2.531,1.17,2.467,2.377a2.718,2.718,0,0,1-2.735,2.386A1.379,1.379,0,0,1-651.581,673.41Z" transform="translate(-106.79 -0.143)"/><path class="a" d="M-680.971,677.395h-2.34a2.41,2.41,0,0,0,.384-1.585q0-2.755,0-5.511a2,2,0,0,0-.476-1.566,32.989,32.989,0,0,1,3.927.08,2.365,2.365,0,0,1,2.206,2.257,2.691,2.691,0,0,1-2.344,2.422,3.809,3.809,0,0,1-1.394-.058,12.225,12.225,0,0,0,1.24-.509,1.823,1.823,0,0,0,.838-2.38,2.163,2.163,0,0,0-2.4-.831c-.249.088-.268.249-.268.459.006,1.948,0,3.895.017,5.842A1.607,1.607,0,0,0-680.971,677.395Z" transform="translate(-88.177 -0.079)"/><path class="a" d="M-398.749,677.316h-2.3c.562-1.209.268-2.476.311-3.713,0-.114-.107-.237-.176-.348-.713-1.145-1.43-2.287-2.141-3.433a3.694,3.694,0,0,0-.921-1.043,1.608,1.608,0,0,1,2.288.749c.589.955,1.174,1.912,1.81,2.949.615-.943,1.183-1.8,1.739-2.672a.81.81,0,0,0-.232-1.117h2.181c-.487.743-.929,1.419-1.372,2.094a9.788,9.788,0,0,1-.739,1.1,4.519,4.519,0,0,0-1.1,3.668C-399.327,676.158-399.449,676.8-398.749,677.316Z" transform="translate(-265.524 0)"/><path class="a" d="M-732.284,668.816h2.306a2.392,2.392,0,0,0-.433,1.639c-.01,1.817,0,3.634-.019,5.451,0,.385.1.571.507.591a4.88,4.88,0,0,0,3.571-.693,7.435,7.435,0,0,1-.49,1.442.325.325,0,0,1-.344.245c-1.635,0-3.269,0-5.029,0a1.8,1.8,0,0,0,.453-1.381c.006-1.95.012-3.9,0-5.85A1.592,1.592,0,0,0-732.284,668.816Z" transform="translate(-57.156 -0.146)"/><path class="a" d="M-421.241,675.945c-.164.424-.333.845-.488,1.273a.376.376,0,0,1-.384.3h-4.918c.551-1.119.515-7.718-.028-8.664h2.183a2.361,2.361,0,0,0-.454,1.7q.006,2.687,0,5.374c0,.314,0,.563.419.583A5.653,5.653,0,0,0-421.241,675.945Z" transform="translate(-250.872 -0.166)"/><path class="a" d="M-622.292,677.48h-2.1a2.921,2.921,0,0,0,.371-1.892q0-2.586,0-5.172a1.871,1.871,0,0,0-.475-1.57h2.268a2.328,2.328,0,0,0-.458,1.645q0,2.685,0,5.371A2.639,2.639,0,0,0-622.292,677.48Z" transform="translate(-125.562 -0.164)"/><path class="a" d="M-751.874,668.853h2.143a2.109,2.109,0,0,0-.478,1.581q0,2.72,0,5.44a2.331,2.331,0,0,0,.43,1.614h-2.071c.578-1.4.285-2.862.284-4.286S-751.269,670.3-751.874,668.853Z" transform="translate(-44.723 -0.169)"/><path class="a" d="M-444.671,677.487h-1.994a37.432,37.432,0,0,0-.045-8.641h1.958a3.545,3.545,0,0,0-.388,2.276c-.01,1.682,0,3.365,0,5.047A1.6,1.6,0,0,0-444.671,677.487Z" transform="translate(-238.4 -0.165)"/><path class="a" d="M-701.2,677.516h-2.049c.517-1.252.467-7.751-.079-8.63h2.1C-701.737,670.067-701.751,676.531-701.2,677.516Z" transform="translate(-75.535 -0.19)"/><path class="a" d="M-512.332,668.864a36.213,36.213,0,0,0-4.453-.111,1.713,1.713,0,0,1,.49,1.358q0,2.923,0,5.846a2.061,2.061,0,0,1-.46,1.474,27.758,27.758,0,0,0,4.4-.108,4.212,4.212,0,0,0,3.611-4.328A4.162,4.162,0,0,0-512.332,668.864Zm2.008,5.271a3.182,3.182,0,0,1-3.184,2.316c-1.448.077-1.448.077-1.448-1.37q0-1.028,0-2.057c0-.928.015-1.858-.007-2.786a.45.45,0,0,1,.424-.536A3.491,3.491,0,0,1-510.325,674.135Z" transform="translate(-193.926 -0.096)"/><g transform="translate(-698.922 668.647)"><path class="a" d="M-475.34,668.778l.011,0h.031c0-.007,0-.014,0-.022C-475.318,668.766-475.33,668.773-475.34,668.778Z" transform="translate(478.692 -668.753)"/><path class="a" d="M-475.577,677.44a5.537,5.537,0,0,1-1.118-2.05c-.669-1.66-1.33-3.323-2-4.985s-.673-1.675-2.431-1.62c.008,1.678-.877,2.984-1.413,4.377a14.283,14.283,0,0,1-1.981,4.265h1.931c-.273-.629-.273-.629.248-2.006.459-1.211.459-1.224,1.726-1.206.68.01,1.524-.275,1.993.117s.556,1.216.8,1.854c.156.4.384.8-.03,1.254Zm-3.771-4.1c-.6-.019-1.195-.009-1.792,0-.3,0-.4-.086-.281-.394.386-.958.756-1.922,1.185-3.018.422,1.1.778,2.045,1.156,2.986C-478.958,673.221-478.973,673.357-479.348,673.345Z" transform="translate(484.516 -668.764)"/><path class="a" d="M-475.371,668.822c-.018.005-.028.015,0,0Z" transform="translate(478.723 -668.797)"/></g></g></svg>