<svg xmlns="http://www.w3.org/2000/svg" width="36.867" height="36.867" viewBox="0 0 36.867 36.867"><defs><style>.a{fill:#252525;}.b{fill:#fff;}</style></defs><g transform="translate(-0.001 0)"><ellipse class="a" cx="18.433" cy="18.433" rx="18.433" ry="18.433" transform="translate(0 0)"/><path class="b" d="M275.707,4.95a4.686,4.686,0,0,1-2.059.515,3.865,3.865,0,0,0,1.647-1.956,5.893,5.893,0,0,1-2.368.824,3.641,3.641,0,0,0-6.28,2.471,2.268,2.268,0,0,0,.1.824,10.226,10.226,0,0,1-7.515-3.706,3.555,3.555,0,0,0-.515,1.853,3.455,3.455,0,0,0,1.647,2.985,4.316,4.316,0,0,1-1.647-.412h0a6.022,6.022,0,0,0,.206,1.338A3.747,3.747,0,0,0,261.6,11.95a2.85,2.85,0,0,1-.927.1,2.01,2.01,0,0,1-.721-.1,3.653,3.653,0,0,0,3.4,2.471,7.509,7.509,0,0,1-4.53,1.544H258a10.355,10.355,0,0,0,5.559,1.647,10.107,10.107,0,0,0,10.089-8.03,7.706,7.706,0,0,0,.206-2.162V6.906A6.593,6.593,0,0,0,275.707,4.95Z" transform="translate(-246.947 8.252)"/></g></svg>