<svg xmlns="http://www.w3.org/2000/svg" width="40" height="40.001" viewBox="0 0 40 40.001"><defs><style>.a,.c{fill:none;}.a{stroke:#000;stroke-width:0.3px;}.b{stroke:none;}</style></defs><g class="a"><rect class="b" width="40" height="40.001" rx="20"/><rect class="c" x="0.15" y="0.15" width="39.7" height="39.701" rx="19.85"/></g><path d="M277.575,5.135A5.181,5.181,0,0,1,275.3,5.7a4.273,4.273,0,0,0,1.821-2.162,6.515,6.515,0,0,1-2.618.91,4.025,4.025,0,0,0-6.942,2.731,2.507,2.507,0,0,0,.114.91A11.3,11.3,0,0,1,259.366,4a3.93,3.93,0,0,0-.569,2.049,3.819,3.819,0,0,0,1.821,3.3A4.771,4.771,0,0,1,258.8,8.89h0a6.661,6.661,0,0,0,.228,1.48,4.142,4.142,0,0,0,2.959,2.5,3.151,3.151,0,0,1-1.024.114,2.222,2.222,0,0,1-.8-.114,4.038,4.038,0,0,0,3.756,2.731,8.3,8.3,0,0,1-5.008,1.707H258a11.447,11.447,0,0,0,6.146,1.821A11.174,11.174,0,0,0,275.3,10.256a8.522,8.522,0,0,0,.228-2.39V7.3A7.288,7.288,0,0,0,277.575,5.135Z" transform="translate(-248 8.8)"/></svg>